<?xml version="1.0" encoding="utf-8"?>
<!-- Generator: Adobe Illustrator 19.0.1, SVG Export Plug-In . SVG Version: 6.00 Build 0)  -->
<svg version="1.1" id="Livello_1" xmlns="http://www.w3.org/2000/svg" xmlns:xlink="http://www.w3.org/1999/xlink" x="0px" y="0px"
	 viewBox="0 0 444 103" style="enable-background:new 0 0 444 103;" xml:space="preserve">
<style type="text/css">
	.st0{clip-path:url(#SVGID_2_);fill:#FFFFFF;}
</style>
<g>
	<defs>
		<rect id="SVGID_1_" x="-61.5" y="-231.9" width="566.9" height="566.9"/>
	</defs>
	<clipPath id="SVGID_2_">
		<use xlink:href="#SVGID_1_"  style="overflow:visible;"/>
	</clipPath>
	<path class="st0" d="M428.8,101.6V86.7l14.8-19.6h-5.1l-11.9,15.8l-11.9-15.8h-5.1l14.8,19.6v14.9H428.8z M388.4,70.8h5.6
		c5.5,0,8.6,2.1,8.6,6.1c0,6.3-7.9,7.2-12.2,7.2c-0.7,0-1.3-0.1-2-0.1V70.8z M388.4,101.6V87.4c0.8,0,1.6,0.1,2.4,0.1
		c1,0,1.9-0.1,2.8-0.1l12.1,14.2h5.6l-12.9-14.9c3.5-0.9,8.5-3.6,8.5-9.6c0-6.1-4.9-9.9-12.5-9.9H384v34.5H388.4z M361.4,70.2
		c8.2,0,12.6,6.4,12.6,14.1c0,8-5.2,14.3-12.6,14.3s-12.5-6.3-12.5-14.3C348.9,76.9,354.1,70.2,361.4,70.2 M378.3,84.2
		c0-10.7-6.7-18.1-16.9-18.1c-9.6,0-16.9,8.9-16.9,18.1c0,10.3,7.3,18.4,16.9,18.4C371.6,102.6,378.3,94.6,378.3,84.2 M315.7,71
		h12.6v30.6h4.4V71h12.7v-3.9h-29.8L315.7,71z M311.4,89.3h-13.5l6.7-14.2L311.4,89.3z M292,101.6l4-8.4h17.3l4,8.4h4.8l-17.6-36.3
		l-17.3,36.3H292z M262.6,70.8h5.6c5.5,0,8.6,2.1,8.6,6.1c0,6.3-7.9,7.2-12.2,7.2c-0.7,0-1.3-0.1-2-0.1V70.8z M262.6,101.6V87.4
		c0.8,0,1.6,0.1,2.4,0.1c1,0,1.9-0.1,2.8-0.1l12.1,14.2h5.6l-12.9-14.9c3.5-0.9,8.5-3.6,8.5-9.6c0-6.1-4.9-9.9-12.5-9.9h-10.4v34.5
		H262.6z M235.6,70.2c8.2,0,12.6,6.4,12.6,14.1c0,8-5.2,14.3-12.6,14.3s-12.5-6.3-12.5-14.3C223.1,76.9,228.3,70.2,235.6,70.2
		 M252.5,84.2c0-10.7-6.7-18.1-16.9-18.1c-9.6,0-16.9,8.9-16.9,18.1c0,10.3,7.3,18.4,16.9,18.4C245.7,102.6,252.5,94.6,252.5,84.2
		 M202.2,85c5.5,0,8.2,2.5,8.2,5.9c0,3.3-2,6.8-8.7,6.8h-6.1V85H202.2z M200,70.7c5.7,0,9.3,0.9,9.5,5c0,4.6-4.3,5.8-9.5,5.8h-4.4
		V70.7H200z M202.8,101.6c7,0,11.8-4.9,11.8-10.6c0-4.3-2.6-6.7-6-8c2.1-1,5.2-3.2,5.2-7.5c0-3.9-3.4-8.4-10.4-8.4h-12.1v34.5H202.8
		z M175.8,89.3h-13.5l6.7-14.2L175.8,89.3z M156.5,101.6l4-8.4h17.3l4,8.4h4.8L169,65.3l-17.3,36.3H156.5z M149.4,101.6v-4.2h-16.8
		V67.1h-4.4v34.5H149.4z"/>
	<path class="st0" d="M399.4,45.1c0-6.1-5-9.3-11-11.6c-3.7-1.5-6.3-3.3-6.3-6.6c0-3.2,3.1-4.8,6.4-4.8c3,0,5.5,1.5,8.4,3.3v-4.8
		c-1.5-1-4.3-2.3-8.5-2.3c-6.2,0-10.4,3.6-10.4,8.6c0,6.3,5.1,9.1,9.8,11c4.5,1.8,7.4,3.7,7.4,7.1c0,3.6-3.3,5.8-7.5,5.8
		c-3.6,0-7.2-1.7-10.3-3.5l0.3,4.8c1.4,0.9,4.8,2.8,9.9,2.8C395.1,54.8,399.4,50.7,399.4,45.1 M372.1,19.3h-4.4v34.5h4.4V19.3z
		 M362,53.8v-4.2h-16.8V19.3h-4.4v34.5H362z M333.5,53.8v-4.1H318v-12h13.4v-3.9H318V23.3h15.5v-4h-19.9v34.5H333.5z M281.3,53.8
		V37.6h20v16.2h4.4V19.3h-4.4v14.3h-20V19.3H277v34.5H281.3z M270.7,51.4l0.3-5c-2.5,1.9-5.8,4.4-11.1,4.4
		c-7.8,0-13.2-5.8-13.2-14.3c0-8.3,5.5-14.1,13.3-14.1c5,0,8.8,2.5,10.1,3.8l0.4-4.6c-0.9-0.8-4.6-3.3-10.2-3.3
		c-10.3,0-18,7.8-18,18.7c0,10.1,7.8,17.8,17.7,17.8C265.4,54.8,268.5,52.8,270.7,51.4 M236.5,19.3h-4.4v34.5h4.4V19.3z M190.1,53.8
		l4.5-23.2l11.6,25.3l11.1-25.3l4.8,23.2h4.2l-7.5-36.3L206.2,46l-12.8-28.5L186,53.8H190.1z M182,53.8v-4.1h-15.5v-12h13.4v-3.9
		h-13.4V23.3H182v-4h-19.9v34.5H182z M131.7,23.4c1.7-0.1,3.4-0.2,5.2-0.2c9.5,0,15.4,5.9,15.4,13.3c0,8.6-5.6,13.2-15,13.2
		c-1.9,0-3.7,0-5.5-0.1V23.4z M137,53.8c9.7,0,19.6-5.6,19.6-17.2c0-12.3-9.5-17.3-19.9-17.3h-9.3v34.5H137z"/>
	<path class="st0" d="M17,90.2l3.7,11.4h65.7l20.3-62.5L91.1,27.8c-9.3-2-19.4-4.1-26.6-5.6c3.1,13.4,10.2,40,10.4,40.7
		c0.2,1.3,0.7,3.8-3.2,7.5c-3.9,3.7-5.6,4.9-8.6,4.9c-0.6,0-3.1-0.4-6.7-0.9c1.1,6.4,1.9,10.9,1.9,10.9s0.8,3.4-1.7,6
		c-2.9,3-2.4,2.8-4.6,3.6C50.1,95.6,38.5,94.5,21,91C19.6,90.7,18.3,90.4,17,90.2 M82.4,21.4l-15.2-11c-2.3,0-4.5,0.9-4,5
		c0.1,0.4,0.1,1,0.3,1.7C69,18.3,76,19.9,82.4,21.4 M10,67.5c-0.1,0-0.3,0-0.4,0l5.8,18c15.1,2.6,32.7,5.6,35.5,5.2
		c3.3-0.5,2.8-3.2,2.8-3.2s-1.2-5.8-2.7-14C36.7,71.1,14.3,67.3,10,67.5 M48.7,27c0.5,4.9,4.1,26.1,6.8,41.5
		c5.4,1.1,9.3,1.8,9.9,1.9c3,0.3,3.5-2.1,2.8-4.3c-0.3-1-7.4-28.6-8.8-44.9c-2.7-0.6-4.4-0.9-4.6-0.9C53.3,19.9,47.9,19,48.7,27
		 M63.2,7.5l-9.7-7L0.4,39.1l7.3,22.6c1.6-0.6,4.1-1.1,7.6-0.8c4,0.4,21.4,3.9,34.6,6.5c-3-16.7-6.5-38.7-5.2-44.1
		c0.9-3.7,4.6-8.9,8.7-8.3c0.8,0.1,2.9,0.6,5.8,1.2c0-2.9,0.3-5.1,1.1-6.1C61.3,8.8,62.3,8,63.2,7.5"/>
</g>
</svg>
